PathFileType	4	(X/Y/Z)	pose2sim_0-881.trc
DataRate	CameraRate	NumFrames	NumMarkers	Units	OrigDataRate	OrigDataStartFrame	OrigNumFrames
50	50	8	22	m	50	330	882
Frame#	Time	Hip			RHip			RKnee			RAnkle			RBigToe			RSmallToe			RHeel			LHip			LKnee			LAnkle			LBigToe			LSmallToe			LHeel			Neck			Head			Nose			RShoulder			RElbow			RWrist			LShoulder			LElbow			LWrist			
		X1	Y1	Z1	X2	Y2	Z2	X3	Y3	Z3	X4	Y4	Z4	X5	Y5	Z5	X6	Y6	Z6	X7	Y7	Z7	X8	Y8	Z8	X9	Y9	Z9	X10	Y10	Z10	X11	Y11	Z11	X12	Y12	Z12	X13	Y13	Z13	X14	Y14	Z14	X15	Y15	Z15	X16	Y16	Z16	X17	Y17	Z17	X18	Y18	Z18	X19	Y19	Z19	X20	Y20	Z20	X21	Y21	Z21	X22	Y22	Z22	
330	6.6	0.1370905196465226	0.9963966342815038	-0.012949042318362327	0.03803072168807589	0.9833642011243066	-0.011749719121963537	0.009921143818987146	0.5156300706655771	-0.06785486140108525	-6.251739355141841e-05	0.0933012306985284	-0.08447475444024126	0.010733274259319402	0.04589338870617947	0.09373491143015197	-0.04103322093643302	0.050044092438694496	0.06017355197563713	0.011043061732866746	0.03852558951993998	-0.13803912914275573	0.23839426200511507	0.9752778214177305	-0.031198448621455238	0.2415678186256845	0.5156515921092509	-0.09828561749836788	0.24103491405090607	0.08994927038662869	-0.10970981979806689	0.25769843849085167	0.04512771654715028	0.06942490699688138	0.3095811848016861	0.04296430965252653	0.02129146515111103	0.22921039599872625	0.03832963712513633	-0.16148492824231284	0.14864403944798468	1.5714649197087895	-0.08053720600989495	0.15154063325570197	1.8247483083930567	-0.04724963813578893	0.14098164533531576	1.6962816015194762	-0.009946970486967228	-0.0085029186197682	1.489730956300965	-0.062314807236217164	-0.07523116818958508	1.2595800969921565	0.06877943856237315	-0.12647884896049028	1.4765012080538715	0.17058845670485515	0.30256513594119827	1.4888073624983906	-0.09919236466021296	0.38820244159326533	1.2523171929624932	0.004090847128560467	0.4256808589086686	1.432784503810839	0.11941851757241091
331	6.62	0.1377248140021915	0.9954540611751377	-0.023331549318427024	0.039194610915679384	0.9837306606437249	-0.010028689732888754	0.010981220155604631	0.518356070448077	-0.06629484182086773	0.0010216701560732764	0.09279496347906571	-0.08306999675881337	0.009207350263947289	0.046504243641925604	0.0886843936862578	-0.04281213862967451	0.05034432178636798	0.05439914373004184	0.011994926236746589	0.038021884412827424	-0.13640492121010514	0.23976645606125313	0.9759129754039991	-0.026607839440109266	0.23955802619851835	0.5178538819823462	-0.10047588835334509	0.23861135522695376	0.08551499250467404	-0.11204345676599384	0.26035396858896853	0.04625227361038239	0.07409958233256603	0.3116886139186621	0.04713335846275746	0.02697705339395286	0.22657321468525948	0.03345398800726085	-0.16394954509697515	0.146427013919258	1.572041155222576	-0.08387996556941638	0.14949152099772015	1.8229359833135963	-0.05054155131612236	0.1422259254831773	1.6966541257295922	-0.00686763479863721	-0.010093892216404027	1.4901802619339752	-0.0541770871250441	-0.07410291504327897	1.2597816919315998	0.0687843216848663	-0.12768720206235365	1.4660268751098653	0.17637718427737983	0.3065911878008202	1.4898297882616216	-0.10057349082022678	0.38940001934409263	1.2550069982432108	0.01084503527102494	0.430145080716083	1.4313603658295184	0.13280577592564008
332	6.64	0.1360938659154418	0.9991832091963782	-0.013629922565316309	0.035855647048781636	0.9840043687572935	-0.007558181366062348	0.009804899567582081	0.5198631863781235	-0.06808593683021857	0.0011653693111314265	0.08892343245693851	-0.08377831561552931	0.010925411013231082	0.052530498766478716	0.13341566787878287	-0.041459634500878105	0.05333898843120934	0.08915907647973377	0.004548818388945451	0.03161885728324689	-0.14014934618680336	0.23577411414231333	0.9748133283374303	-0.027683121024739746	0.24262859358742978	0.5119783371597013	-0.10915017854604822	0.24270880300390535	0.08790296772147073	-0.10859082862157801	0.2615703277330818	0.04493310735553315	0.10380219622602227	0.3125773584379195	0.04385723770664549	0.04802944140950054	0.22252542528989352	0.032062164246652536	-0.16523560859713607	0.14470763044007315	1.565147243999924	-0.09068007466470647	0.14975228465966844	1.8224611004691222	-0.06702158020551394	0.14102952764535803	1.6996612726798777	0.01327496232923691	-0.006491851442191465	1.4827547088633988	-0.06575330248296372	-0.07929057631660268	1.2544488420859268	0.07741080564296543	-0.13763631947450938	1.4565054930633499	0.19576758254111673	0.3016966163277128	1.477893382079409	-0.08707725359829813	0.38880558429091705	1.2464917067412347	0.022785069854386452	0.444407538285123	1.4411449110082695	0.13315958180522272
333	6.66	0.1378416010676364	0.9981818851200803	-0.024686146602898626	0.03569679357053378	0.9855671760517013	-0.017064910438121764	0.008548360856434784	0.5212836602132707	-0.05935975325738258	-0.001174097667446498	0.09588213511004084	-0.07616034535113646	0.008471637958890504	0.04722543601296139	0.08867084430421783	-0.04308392630375422	0.05434133025744835	0.05457898001240435	0.009931210643790277	0.0470932535748499	-0.12942747371000637	0.2400888849086759	0.9784187472512864	-0.028702294764437336	0.24659464490307925	0.5166515841051942	-0.10315045317548978	0.2399195065150774	0.08900927577340215	-0.11452826910822296	0.26373707515626665	0.04561075234698144	0.07872814614503737	0.3125500962209887	0.0474587571346155	0.024363234583908735	0.22171714909849272	0.037479759398645736	-0.1666418950703494	0.14335566705003183	1.5709834240165153	-0.09234158353921496	0.14646678465096305	1.8252008708271523	-0.05856693142509413	0.1430010605481224	1.7007916483405006	0.004873461696667367	-0.011271182694388326	1.4804218861265042	-0.06837951943909633	-0.08292305929691308	1.2531183503933698	0.07703940979086565	-0.13731075901861076	1.443227037446482	0.23442130165257385	0.3012493442324887	1.4830953115572327	-0.10389558940566582	0.396229210193446	1.2554191476656686	0.008045687970380452	0.44784657859964455	1.4367501581052282	0.1312842504797638
334	6.68	0.13800540930090674	0.9949420471595691	-0.017849468546002403	0.03603458333205289	0.982082834227961	-0.009885400689410111	0.00755790259531448	0.5185411944042517	-0.0659188086387749	0.002123011949811272	0.09481958392117588	-0.0759343044335725	0.00857833697687049	0.041714878972579236	0.082152061434674	-0.04542786471940878	0.05098392245647085	0.0554209272814658	0.008554849920110642	0.04723899350099571	-0.11395012766733727	0.2426952776620275	0.9771256595913437	-0.028824549245639236	0.24321199515774186	0.5180069497165517	-0.10317372996761463	0.24021535763567292	0.08983640840018893	-0.10748953895926516	0.2551927162821144	0.04756868847013227	0.07850621938003262	0.30633742072616166	0.044085891329916985	0.016926860015273607	0.22495300491156106	0.030129266848425044	-0.1670556247624681	0.143239285530986	1.574630097663642	-0.09887814798794925	0.14567955830512802	1.827533923132879	-0.07850843969099809	0.13965098547258833	1.7020861235364384	-0.00772086849543272	-0.013908594694616281	1.4839242089586522	-0.06725078773990412	-0.08106098784178857	1.2494528491904369	0.06450725624711862	-0.14367110522096113	1.4300638826447432	0.23013583500174348	0.30430972327461164	1.4813156223071446	-0.10422562357207056	0.39910482887411125	1.2485913768976513	0.007238979999941386	0.45340996478692297	1.4216863728674385	0.14928155957683636
335	6.7	0.13652381862742305	0.9971640155394351	-0.0212942500761028	0.0342033585858444	0.9817554842203966	-0.013284359003593899	0.00989182019691423	0.5241761419093366	-0.062497043379217104	0.000666501220160691	0.09580528295797387	-0.07952657172863603	0.0077049918879067095	0.04977944957329581	0.09246115567897065	-0.04386114592244074	0.05098019185362913	0.05853081144380056	0.0066182823131099395	0.045207099225635504	-0.11769748895899405	0.24136562584750104	0.9794828208923936	-0.03242402901495019	0.24528561997166623	0.5213508270245522	-0.09992380507067605	0.2419640877640839	0.08987656944155631	-0.10415432982298786	0.2559372830574274	0.047358799769065305	0.08189273069621479	0.3102742633481407	0.04592180110649892	0.027286062680930284	0.22672747914538668	0.03636112042496787	-0.16354123080969213	0.14486985836258448	1.5726717889109656	-0.09594606606979503	0.1473047116025836	1.8281037070315178	-0.07546136669846328	0.1412643252720736	1.7026826756199622	-0.004682912097492461	-0.012408779335437055	1.479044864939822	-0.06438811016741892	-0.08298859997662193	1.2462654860230327	0.06124293093829735	-0.148286805157112	1.4084869004926794	0.23378417013696381	0.3028624941213798	1.4790376512120353	-0.10792183219528904	0.40107456730153906	1.2492554404994056	0.010525390279120967	0.4581328335000998	1.4126582940189205	0.15855731384040903
336	6.72	0.13563018113195355	0.9960251988349181	-0.01616342419859378	0.03496340443518992	0.9782531534438826	-0.010025474547549876	0.012280316730429954	0.5187452020194216	-0.06504614589605111	0.0007937695631788047	0.09048134339894326	-0.0864024414248172	0.0015018632368757336	0.04679911833465204	0.11552031327975605	-0.051206104930628105	0.04750080726143826	0.07106010464235231	0.007229457011940819	0.03462818444330688	-0.13699687587035467	0.23827624879075807	0.9718366195245072	-0.024588151450471392	0.24033882281116845	0.5108416225901774	-0.10610139430501284	0.24012385605880202	0.08329455143184501	-0.10544282058394824	0.2618681154788332	0.040801784556636425	0.09018693939657631	0.3146941724386073	0.032435019136487324	0.02838698690991678	0.21711656284087827	0.0315721925945632	-0.15570791552962987	0.1465469646975525	1.5697287455921665	-0.09891392116253767	0.14933226820837445	1.8235814789800286	-0.06958900741234059	0.13524446042894697	1.7021560925348869	0.00045144457857235383	-0.011063890900229297	1.480515007672637	-0.08511839223915903	-0.08474566360760918	1.2441167979612322	0.059642841385440605	-0.16426606027037052	1.3962837564155548	0.21314089917160436	0.30405556883444335	1.4733703574826347	-0.09564148255686392	0.40622973119904593	1.2411654157801022	0.004770872963263371	0.4691014793462957	1.3947779937462508	0.1634097127975516
337	6.74	0.13451944759116083	0.9944950995165754	-0.02473315323648957	0.035615338356507514	0.9825238071432043	-0.010406973373666733	0.010708727101481757	0.5251107705899891	-0.05980735779703235	-0.0018192938876228635	0.0969855976673176	-0.08344884665572509	0.006340939503725749	0.05470770888269632	0.10254537822818621	-0.04633888319872991	0.051825998411366876	0.05496690069449319	0.006736437730662363	0.05008568712636002	-0.12922940637536742	0.23976988227879995	0.9739214332741801	-0.03581710667947007	0.24671505900324114	0.5189655276897858	-0.09632844096816283	0.2404739851586277	0.08815769810967183	-0.10772606842796315	0.25735399108066714	0.0503767045898992	0.08574911192805502	0.30904080920581545	0.044250920938917915	0.024226193625207112	0.22514887036351355	0.03447983932197539	-0.16736127773359885	0.14878066755716196	1.5710149306462406	-0.09967782854833687	0.14533194510518677	1.8300659721631325	-0.0788326403331809	0.13921861858327375	1.6966323289257894	-0.008164044122689828	-0.009807783168097205	1.485539254069731	-0.08233462968221368	-0.08663064515653908	1.2469306911352376	0.04463159227158941	-0.16901915584504476	1.3896510719533823	0.22148483005622113	0.3071684052969491	1.4774590318659369	-0.11112500038524945	0.39982796634694784	1.2468961345503162	0.007638841899531576	0.4798644195839329	1.3876828953405915	0.18260843142865074
